Coordinates
version=1
nRows=16
nColumns=36
inDegrees=yes

Units are S.I. units (second, meters, Newtons, ...)
If the header above contains a line with 'inDegrees', this indicates whether rotational values are in degrees (yes) or radians (no).

endheader
time	pelvis_tilt	pelvis_list	pelvis_rotation	pelvis_tx	pelvis_ty	pelvis_tz	hip_flexion_r	hip_adduction_r	hip_rotation_r	knee_angle_r	knee_angle_r_beta	ankle_angle_r	subtalar_angle_r	mtp_angle_r	hip_flexion_l	hip_adduction_l	hip_rotation_l	knee_angle_l	knee_angle_l_beta	ankle_angle_l	subtalar_angle_l	mtp_angle_l	lumbar_extension	lumbar_bending	lumbar_rotation	arm_flex_r	arm_add_r	arm_rot_r	elbow_flex_r	pro_sup_r	arm_flex_l	arm_add_l	arm_rot_l	elbow_flex_l	pro_sup_l
      2.31000000	    -18.27164099	     -4.01857694	      4.56353341	     -0.22364560	      0.69151435	     -0.54304764	     72.45220535	     -2.33039401	     -1.27556366	     95.30950488	      1.66346467	     26.87378329	    -19.78796789	     -7.41519873	     74.12595725	     -2.69851286	     10.78614017	     92.80960558	      1.61983319	     32.95374635	     -3.36004385	     -7.41519873	    -26.96985731	      3.67124367	     -7.68440564	     39.69224464	    -16.01621223	     12.12377588	     93.19009031	    109.50600542	     27.54777509	    -25.18097018	      1.49459765	     96.90891196	     86.05168979
      2.32000000	    -18.22819317	     -3.87138946	      4.49786643	     -0.21821090	      0.70368291	     -0.54347478	     70.74142805	     -2.28397133	     -1.40129988	     93.20357297	      1.62670922	     25.77043094	    -20.47374874	     -7.41752053	     72.19216298	     -2.80155540	     10.45059094	     90.55120703	      1.58041670	     32.48985623	     -3.73660554	     -7.41752053	    -25.99328959	      3.40966317	     -8.04500094	     36.33488844	    -17.89954876	      9.90505209	     96.75981443	    109.35444647	     23.67688534	    -26.02715566	     -1.21022875	     99.09201518	     86.40301217
      2.33000000	    -18.05818571	     -3.67516517	      4.41479767	     -0.21264572	      0.71677452	     -0.54410204	     68.75365074	     -2.29428091	     -1.50044263	     90.90678004	      1.58662262	     25.10969297	    -20.54146151	     -7.41845007	     69.97462356	     -2.87728529	     10.05326519	     88.07052504	      1.53712064	     32.09224026	     -3.89805651	     -7.41845007	    -25.17402982	      3.17623327	     -8.32897641	     32.66527327	    -20.16760866	      7.47179387	    101.27292682	    109.42165942	     19.44231515	    -27.06135826	     -4.01646024	    101.29018682	     86.61287178
      2.34000000	    -17.93864453	     -3.47722489	      4.23715437	     -0.20698901	      0.73031751	     -0.54470706	     66.75665469	     -2.25503715	     -1.50853268	     88.42898939	      1.54337702	     24.33176605	    -20.56524794	     -7.41935688	     67.71901484	     -3.01636157	      9.60369613	     85.39965364	      1.49050514	     31.59180489	     -4.22593517	     -7.41935688	    -24.34422718	      2.89059824	     -8.46582956	     28.57734075	    -22.45473254	      3.72914478	    106.49049685	    109.46204232	     14.57101515	    -28.03335669	     -7.44700017	    104.31518778	     86.85238906
      2.35000000	    -17.96957055	     -3.19936527	      3.98357240	     -0.20121983	      0.74430853	     -0.54512569	     64.91775652	     -2.22117809	     -1.19941378	     85.77360370	      1.49703180	     22.93921670	    -20.78747082	     -7.42290029	     65.46221704	     -3.12998665	      9.07781781	     82.41070326	      1.43833811	     30.52036656	     -5.27711537	     -7.42290029	    -23.30102815	      2.39218443	     -8.38389539	     23.82973485	    -24.84565625	     -1.26607713	    112.07646165	    109.19500025	      9.34648812	    -28.86282237	    -11.00532798	    108.01023311	     86.87854417
      2.36000000	    -18.15579089	     -3.14384775	      3.54125557	     -0.19537863	      0.75840863	     -0.54499518	     63.20102458	     -1.86973974	     -0.81449780	     82.91089112	      1.44706804	     21.93163494	    -19.99137651	     -7.42399160	     63.38731124	     -3.65255723	      8.60255574	     79.33967110	      1.38473849	     29.93103164	     -5.22053552	     -7.42399160	    -22.02436932	      2.12058548	     -8.25866386	     19.10266799	    -27.48648694	     -6.57411020	    117.95255559	    109.10219143	      3.05265814	    -29.65586181	    -15.27687721	    112.50782344	     87.16553432
      2.37000000	    -18.36929970	     -3.07697125	      2.95496215	     -0.18944467	      0.77318804	     -0.54440294	     61.33172698	     -1.34921184	     -0.45740032	     79.68084268	      1.39069306	     20.82121701	    -19.58682941	     -7.42521103	     61.18835937	     -4.29076704	      8.06559289	     75.96458139	      1.32583206	     29.09686252	     -5.28448171	     -7.42521103	    -20.68098247	      1.71994184	     -8.03606702	     14.20212772	    -29.93532555	    -13.20225922	    123.59384307	    108.85370605	     -3.86119389	    -30.18917958	    -20.06584321	    117.69205961	     87.47072066
      2.38000000	    -18.48075731	     -2.85521129	      2.37425915	     -0.18335101	      0.78911449	     -0.54414333	     59.12701273	     -0.95731448	     -0.15670322	     76.02888318	      1.32695434	     18.71901298	    -20.56450780	     -7.43110850	     58.63002846	     -4.66797422	      7.47378169	     72.15946435	      1.25942024	     27.50771895	     -6.23598160	     -7.43110850	    -19.42034301	      1.19077738	     -7.08088599	      8.15561732	    -32.53849582	    -22.36829330	    129.49240986	    107.78974280	    -10.05641255	    -30.55060527	    -23.77640234	    122.73364386	     87.07908419
      2.39000000	    -18.44775087	     -2.50099394	      1.85611514	     -0.17712247	      0.80604609	     -0.54455335	     56.62688446	     -0.89181510	      0.13615795	     72.14950273	      1.25924638	     17.23004194	    -20.43394003	     -7.43669493	     55.73605261	     -4.76397918	      6.87696077	     68.00117064	      1.18684432	     25.76745982	     -6.99974479	     -7.43669493	    -18.30113673	      0.62163642	     -6.34574144	      2.17175741	    -35.14532042	    -32.64474222	    134.67250405	    106.66254929	    -16.75541637	    -30.55938979	    -28.02182342	    128.08574022	     87.15071173
      2.40000000	    -18.36566434	     -2.23734725	      1.34848277	     -0.17078973	      0.82353302	     -0.54516005	     53.96242287	     -0.87809707	      0.32529835	     67.99345074	      1.18670959	     15.87120463	    -19.65705190	     -7.43787578	     52.75632281	     -4.89974950	      6.34813656	     63.65878126	      1.11105533	     24.17141193	     -6.87601183	     -7.43787578	    -17.15006168	      0.18181443	     -6.62492035	     -2.12379463	    -37.73428276	    -42.05277754	    138.24448967	    106.06918176	    -25.05606586	    -29.52203165	    -34.03733873	    133.90734084	     87.67396727
      2.41000000	    -18.38725877	     -1.93975041	      0.76380117	     -0.16425584	      0.84157660	     -0.54574133	     51.27697106	     -0.82152767	      0.62324809	     63.41470907	      1.10679547	     13.20902426	    -19.96894613	     -7.44317073	     49.74854634	     -4.94721593	      5.80557981	     58.90343629	      1.02805890	     20.86310494	     -8.62786153	     -7.44317073	    -15.83334553	     -0.19875477	     -4.50255237	    -10.63730940	    -40.00799772	    -57.58070468	    142.32937544	    103.70251477	    -30.32724363	    -29.57542064	    -36.04695721	    138.35105922	     88.47468133
      2.42000000	    -18.33885531	     -1.73827978	      0.08844878	     -0.15756203	      0.86013608	     -0.54611543	     48.38000464	     -0.62863174	      0.96986045	     58.52333136	      1.02142482	     10.83434932	    -19.45279561	     -7.44884888	     46.59149640	     -5.21750546	      5.21937621	     53.94792346	      0.94156889	     18.25201381	     -8.46758669	     -7.44884888	    -14.49050468	     -0.42170477	     -3.17109631	    -17.73848521	    -42.18938305	    -71.68920420	    144.91212428	    101.14590770	    -36.59840490	    -28.80672817	    -39.20129552	    142.81055755	     89.80028200
      2.43000000	    -18.26770079	     -1.47366185	     -0.64459747	     -0.15064900	      0.87937384	     -0.54665673	     45.33605005	     -0.53035991	      1.36751161	     53.26881745	      0.92971625	      7.74553794	    -19.01678732	     -7.45409007	     43.23542504	     -5.41522739	      4.53979818	     48.56097115	      0.84754883	     14.59254967	     -8.77221531	     -7.45409007	    -13.09264052	     -0.62939875	     -1.89581489	    -24.81487050	    -44.39527209	    -85.40139574	    146.65189591	     99.08935441	    -42.67956370	    -27.82649768	    -41.75900464	    146.57893344	     92.52966096
      2.44000000	    -18.17083341	     -1.19779625	     -1.35168295	     -0.14361133	      0.89933885	     -0.54735857	     42.06923332	     -0.52088008	      1.80052901	     47.52433134	      0.82945606	      3.92974307	    -18.51245812	     -7.45824916	     39.69029405	     -5.48834287	      3.95250648	     42.71754248	      0.74556176	     10.00325702	     -9.17214819	     -7.45824916	    -11.70493026	     -0.68652132	     -0.30138283	    -32.97558498	    -46.19377934	    -99.56404355	    147.86994184	     97.84464974	    -47.92698710	    -27.26528967	    -43.22203542	    148.67346418	     99.36547873
      2.45000000	    -17.84125364	     -1.03229684	     -2.06027994	     -0.13639307	      0.92020718	     -0.54787132	     38.33062010	     -0.47541969	      2.22096661	     41.29555515	      0.72074340	      0.07486547	    -17.07417598	     -7.45953368	     35.77495674	     -5.70301899	      3.24532391	     36.52734636	      0.63752246	      5.36904311	     -8.12108709	     -7.45953368	    -10.58957140	     -0.47756889	      1.38465173	    -41.80852663	    -47.57243901	   -113.19959121	    148.59505188	     98.01917924	    -52.33154414	    -27.04995347	    -44.09907103	    149.29388712	    109.53225578
      2.46000000	    -17.30188552	     -0.87629431	     -2.80410749	     -0.12910803	      0.94215480	     -0.54786084	     34.10304572	     -0.37870051	      2.90081656	     34.37913568	      0.60002911	     -5.34182305	    -16.14957370	     -7.45940352	     31.51674628	     -5.93801160	      2.22344563	     29.91062086	      0.52203882	     -0.89632542	     -7.46465715	     -7.45940352	     -9.72029778	     -0.27410413	      2.74159094	    -50.02662465	    -48.76096712	   -124.28493574	    149.09110672	     99.17774381	    -55.96694994	    -26.81298450	    -44.03838018	    149.55871813	    114.47044935
